<svg xmlns="http://www.w3.org/2000/svg" width="40" height="40" viewBox="0 0 40 40" preserveAspectRatio="xMidYMid meet">
  <g class="IconSetDatum">
    <rect x="8" y="8" width="3" height="3"/>
    <rect x="15" y="8" width="3" height="3"/>
    <rect x="22" y="8" width="3" height="3"/>
    <rect x="29" y="8" width="3" height="3"/>
    <rect x="8" y="15" width="3" height="3"/>
    <rect x="15" y="15" width="3" height="3"/>
    <rect x="22" y="15" width="3" height="3"/>
    <rect x="29" y="15" width="3" height="3"/>
    <rect x="8" y="22" width="3" height="3"/>
    <rect x="15" y="22" width="3" height="3"/>
    <rect x="22" y="22" width="3" height="3"/>
    <rect x="29" y="22" width="3" height="3"/>
    <rect x="8" y="29" width="3" height="3"/>
    <rect x="15" y="29" width="3" height="3"/>
    <rect x="22" y="29" width="3" height="3"/>
    <rect x="29" y="29" width="3" height="3"/>
  </g>
</svg>
