<svg xmlns="http://www.w3.org/2000/svg" width="40" height="40" viewBox="0 0 40 40" preserveAspectRatio="xMidYMid meet">
  <g class="icon-set diamond">
    <polygon points="20 6.331 8.441 6.331 13.913 16.013 20 6.331"/>
    <polygon points="8.441 6.331 3.5 16.013 13.913 16.013 8.441 6.331"/>
    <polygon points="31.559 6.331 20 6.331 26.087 16.013 31.559 6.331"/>
    <polygon points="36.5 16.013 31.559 6.331 26.087 16.013 36.5 16.013"/>
    <polygon points="26.087 16.013 20 33.669 36.5 16.013 26.087 16.013"/>
    <polygon points="3.5 16.013 20 33.669 13.913 16.013 3.5 16.013"/>
    <polygon points="13.913 16.013 20 33.669 26.087 16.013 13.913 16.013"/>
    <polygon points="26.087 16.013 20 6.331 13.913 16.013 26.087 16.013"/>
    <polygon points="31.559 6.331 20 6.331 8.441 6.331 3.5 16.013 20 33.669 36.5 16.013 31.559 6.331"/>
  </g>
</svg>
